<svg t="1689759745207" class="icon" viewBox="0 0 1025 1024" version="1.1" xmlns="http://www.w3.org/2000/svg" p-id="21510" width="200" height="200"><path d="M104.311467 892.142933c-11.605333 0-15.4624-11.5712-15.4624-15.4624 0-3.857067 3.857067-15.4624 11.605333-15.4624 262.7584-108.202667 517.802667-158.4128 796.023467-170.018133h127.522133l-27.0336 3.857067c-282.077867 27.0336-571.904 65.706667-826.914133 177.7664-23.2448 7.748267-42.564267 11.605333-65.7408 19.319466z m649.181866-324.573866c-27.0336 0-57.9584-3.857067-77.277866-27.0336-15.4624-23.176533-30.9248-46.3872-30.9248-73.4208 0-81.134933 23.176533-158.446933 73.4208-220.2624 46.3872-61.815467 108.202667-127.522133 189.3376-131.3792 77.277867-3.857067 88.8832 85.026133 92.740266 112.059733 7.714133 131.3792-104.3456 301.397333-247.296 340.036267z m150.698667-363.246934c-3.857067 0-158.446933 23.176533-193.2288 255.044267 0 11.605333 3.857067 46.3872 23.176533 46.3872 30.9248-3.857067 50.244267-23.176533 69.563734-46.3872 19.319467-19.319467 38.638933-42.496 57.9584-61.815467 34.781867-46.3872 73.4208-100.4544 77.277866-158.4128 0-27.067733-15.428267-30.9248-34.747733-34.816zM123.630933 281.634133S50.210133 312.558933 42.496 316.416c-3.857067 3.857067 7.714133-42.496 23.176533-50.244267 38.638933-23.176533 69.563733-50.244267 108.202667-69.563733 15.4624-7.714133 34.781867 19.319467 34.781867 38.638933 0 15.4624 0 15.4624-81.134934 197.085867-27.0336 57.9584-54.101333 119.773867-57.9584 181.623467-3.857067 54.101333-69.563733 30.9248-69.563733-15.4624s11.605333-96.597333 27.067733-135.236267c26.999467-61.8496 61.781333-115.950933 96.5632-181.623467z m510.0544-3.8912c3.857067 112.059733-96.597333 289.792-243.438933 328.465067-27.0336 0-61.815467 0-77.277867-23.176533-23.176533-15.4624-30.9248-46.3872-30.9248-77.277867 0-81.134933 30.9248-162.304 73.4208-216.405333 57.9584-69.563733 81.134933-112.059733 189.3376-135.236267 65.706667-19.319467 88.8832 96.597333 88.8832 123.630933z m-135.236266-19.319466c-42.496 23.176533-142.984533 142.984533-146.8416 239.581866 0 11.605333 11.5712 46.3872 92.740266 0 23.176533-15.4624 38.638933-42.496 57.9584-61.815466 34.781867-46.3872 65.672533-100.488533 69.563734-158.446934-3.857067-69.5296-73.4208-15.428267-73.4208-19.319466zM27.0336 787.831467c262.7584-108.202667 455.953067-154.555733 734.173867-166.161067h204.8l-42.496 3.857067c-285.934933 27.0336-571.904 61.815467-830.805334 170.018133-23.176533 11.5712-42.496 15.4624-61.815466 23.176533H27.0336c-23.210667-7.714133-7.748267-27.0336 0-30.890666z m0 0" fill="#FF0013" p-id="21511"></path></svg>