<svg t="1690789036365" class="icon" viewBox="0 0 1024 1024" version="1.1" xmlns="http://www.w3.org/2000/svg" p-id="83979" width="200" height="200"><path d="M810.417231 955.116308a67.544615 67.544615 0 0 1-37.179077-10.988308l-35.446154-22.843077a32.807385 32.807385 0 0 1-7.010462-4.962461l-20.558769-13.627077a372.224 372.224 0 0 1-224.492307-38.360616 24.969846 24.969846 0 0 1-10.436924-34.107077 25.521231 25.521231 0 0 1 15.202462-12.248615 26.033231 26.033231 0 0 1 19.692308 1.969231c60.573538 31.940923 0 74.555077 0-1.969231 371.239385 0 423.108923-290.540308 419.012923-307.2-3.662769-14.808615 7.286154 14.729846 0 0a25.009231 25.009231 0 0 1 11.815384-33.673846 25.875692 25.875692 0 0 1 34.264616 11.815384 272.384 272.384 0 0 1 20.243692 54.626462 267.815385 267.815385 0 0 1 7.601231 64.039385 287.980308 287.980308 0 0 1-125.124923 231.227076v51.2a66.678154 66.678154 0 0 1-34.855385 58.013539 25.284923 25.284923 0 0 1-3.938461 1.732923 84.992 84.992 0 0 1-28.908308 5.474462M259.347692 857.718154a68.686769 68.686769 0 0 1-32.334769-8.152616 65.457231 65.457231 0 0 1-35.209846-57.619692v-82.313846A370.215385 370.215385 0 0 1 20.795077 405.858462c0-212.204308 199.207385-384.827077 444.022154-384.827077s444.061538 172.622769 444.061538 384.827077c0 151.709538-101.848615 283.214769-260.174769 350.247384a484.430769 484.430769 0 0 1-183.886769 34.540308 507.746462 507.746462 0 0 1-73.924923-5.513846l-39.384616 25.718154a42.535385 42.535385 0 0 1-4.726154 3.308307l-51.2 33.201231a64.708923 64.708923 0 0 1-35.958153 10.358154" fill="#24C254" p-id="83980"></path><path d="M292.903385 444.022154m-45.331693 0a45.331692 45.331692 0 1 0 90.663385 0 45.331692 45.331692 0 1 0-90.663385 0Z" fill="#FFFFFF" p-id="83981"></path><path d="M481.752615 444.022154m-45.331692 0a45.331692 45.331692 0 1 0 90.663385 0 45.331692 45.331692 0 1 0-90.663385 0Z" fill="#FFFFFF" p-id="83982"></path><path d="M670.641231 444.022154m-45.331693 0a45.331692 45.331692 0 1 0 90.663385 0 45.331692 45.331692 0 1 0-90.663385 0Z" fill="#FFFFFF" p-id="83983"></path></svg>