<svg t="1692262805300" class="icon" viewBox="0 0 1024 1024" version="1.1" xmlns="http://www.w3.org/2000/svg" p-id="88436" width="200" height="200"><path d="M470.219943 92.579535c-113.567545 2.789533-207.612455 116.802216-203.594955 246.954485 2.38021 78.463026 40.384779 149.189857 95.122451 191.248765 32.761148 25.100678 71.472821 40.013319 112.228037 40.160675 41.463344 0.224104 80.768535-14.724353 113.826442-40.011272 57.564044-43.807738 96.535637-118.810966 95.755878-201.178929C682.292989 198.300368 584.677764 89.791026 470.219943 92.579535zM528.453229 633.863489c-17.47807 5.728468-35.662221 9.111518-54.514591 9.073656-40.756239-0.224104-79.466889-15.09786-112.228037-40.198537C307.938929 621.963461 74.445014 734.48928 74.445014 751.631706l0 126.138862c0 18.777669 14.46648 24.505114 32.314986 24.505114l473.121528 0c-43.172265-44.88528-69.947072-106.165971-69.947072-173.808558C509.971295 694.997847 516.626879 663.130046 528.453229 633.863489zM754.769674 529.668405c-107.431801 0-194.745403 89.135086-194.745403 198.835557 0 109.587907 87.349417 198.798718 194.745403 198.798718 107.392916 0 194.780195-89.173972 194.780195-198.798718C949.588755 618.803491 862.199429 529.668405 754.769674 529.668405zM752.724085 830.358745l-18.185174 22.349007L635.067408 745.498008l36.59036-34.026978 60.391439 65.040319 121.67213-149.860123 38.823214 31.571043L752.724085 830.358745z" fill="#d4237a" p-id="88437"></path></svg>