<svg t="1689817623807" class="icon" viewBox="0 0 1024 1024" version="1.1" xmlns="http://www.w3.org/2000/svg" p-id="24233" width="200" height="200"><path d="M954.181818 768h-23.272727V418.909091c0-230.4-188.509091-418.909091-418.909091-418.909091S93.090909 188.509091 93.090909 418.909091v349.090909H69.818182c-25.6 0-46.545455 20.945455-46.545455 46.545455s20.945455 46.545455 46.545455 46.545454h237.381818c20.945455 93.090909 104.727273 162.909091 204.8 162.909091s183.854545-69.818182 204.8-162.909091H954.181818c25.6 0 46.545455-20.945455 46.545455-46.545454s-20.945455-46.545455-46.545455-46.545455z m-442.181818 162.909091c-46.545455 0-88.436364-27.927273-107.054545-69.818182h214.10909c-18.618182 41.890909-60.509091 69.818182-107.054545 69.818182zM186.181818 768V418.909091c0-179.2 146.618182-325.818182 325.818182-325.818182s325.818182 146.618182 325.818182 325.818182v349.090909H186.181818z" fill="#2D3548" p-id="24234"></path></svg>