<svg t="1689643319608" class="icon" viewBox="0 0 1024 1024" version="1.1" xmlns="http://www.w3.org/2000/svg" p-id="97100" width="200" height="200"><path d="M512 512m-512 0a512 512 0 1 0 1024 0 512 512 0 1 0-1024 0Z" fill="#F98AAA" p-id="97101"></path><path d="M734.72 327.68l-186.88-90.88c-61.44-30.72-138.24-2.56-168.96 62.72l-102.4 208.64c-12.8 26.88-16.64 57.6-10.24 87.04 3.84 19.2 15.36 34.56 32 44.8 16.64 10.24 35.84 12.8 53.76 7.68l108.8-28.16c11.52-2.56 21.76 2.56 25.6 12.8l44.8 102.4c6.4 15.36 19.2 28.16 33.28 34.56l6.4 2.56c17.92 6.4 37.12 6.4 55.04-2.56 26.88-12.8 49.92-34.56 62.72-62.72l102.4-208.64c29.44-64 5.12-140.8-56.32-170.24z" fill="#FFFFFF" opacity=".5" p-id="97102"></path><path d="M574.72 327.68H366.08c-69.12 0-125.44 57.6-125.44 130.56V691.2c0 30.72 10.24 60.16 28.16 83.2 11.52 15.36 29.44 24.32 47.36 25.6 19.2 2.56 38.4-3.84 52.48-16.64l85.76-72.96c8.96-7.68 20.48-7.68 29.44 0l85.76 72.96c12.8 11.52 29.44 16.64 44.8 16.64h6.4c19.2-1.28 35.84-11.52 47.36-25.6 19.2-23.04 29.44-52.48 29.44-83.2V456.96c1.28-70.4-53.76-129.28-122.88-129.28z" fill="#FFFFFF" p-id="97103"></path><path d="M471.04 441.6m-34.56 0a34.56 34.56 0 1 0 69.12 0 34.56 34.56 0 1 0-69.12 0Z" fill="#F98AAA" p-id="97104"></path></svg>