<svg t="1690784968847" class="icon" viewBox="0 0 1024 1024" version="1.1" xmlns="http://www.w3.org/2000/svg" p-id="23416" width="200" height="200"><path d="M512 669.866667m-234.666667 0a234.666667 234.666667 0 1 0 469.333334 0 234.666667 234.666667 0 1 0-469.333334 0Z" fill="#FCCA1E" p-id="23417"></path><path d="M512 332.8c-36.266667 0-64-27.733333-64-64v-85.333333c0-36.266667 27.733333-64 64-64s64 27.733333 64 64v85.333333c0 34.133333-27.733333 64-64 64z" fill="#FF354A" p-id="23418"></path><path d="M755.2 768H268.8c-42.666667 0-76.8-34.133333-76.8-76.8v-183.466667c0-177.066667 142.933333-320 320-320s320 142.933333 320 320v183.466667c0 42.666667-34.133333 76.8-76.8 76.8z" fill="#F14775" p-id="23419"></path><path d="M832 768H192c-36.266667 0-64-27.733333-64-64s27.733333-64 64-64h640c36.266667 0 64 27.733333 64 64s-27.733333 64-64 64z" fill="#f4ea2a" p-id="23420"></path></svg>