<svg t="1692150055675" class="icon" viewBox="0 0 1024 1024" version="1.1" xmlns="http://www.w3.org/2000/svg" p-id="58557" width="200" height="200"><path d="M812.918537 391.503649l-11.683087-15.863293c-5.92085-8.036024-12.45159-25.244964-13.351076-35.20378l-1.775436-19.620873c-2.194992-24.288173-19.948331-50.034557-41.907459-60.714803l-17.717523-8.617262c-8.976442-4.365424-22.75526-16.567327-28.181853-24.968671l-10.689456-16.548908c-13.231349-20.48659-40.915875-35.032888-65.322752-34.283828l-19.692504 0.604774c-9.976212 0.304945-27.848255-4.093225-36.556591-9.011234l-17.156751-9.686616c-21.234627-11.990079-52.508911-12.004405-73.772191 0l-17.156752 9.685593c-8.692986 4.906753-26.561959 9.318226-36.55659 9.011234l-19.692505-0.603751c-24.375154-0.748037-52.074006 13.772678-65.322751 34.282805l-10.689456 16.548908c-5.415336 8.383948-19.191084 20.593014-28.181853 24.968671l-17.717524 8.616238c-21.930475 10.664897-39.71042 36.393885-41.907458 60.714803l-1.775437 19.620873c-0.896416 9.940396-7.421017 27.15343-13.350052 35.20378l-11.683087 15.863293c-14.461363 19.635199-18.247596 50.680263-8.892531 73.234955l7.547907 18.1995c3.824095 9.218966 6.04774 27.491121 4.538362 37.374213l-2.973727 19.476587c-3.679809 24.108071 7.394411 53.355185 26.160823 68.980047l15.140838 12.606109c7.66968 6.385431 18.128893 21.531386 21.3871 30.985712l6.419199 18.626219c1.152243 3.345188 2.63092 6.641257 4.387937 9.847276l-70.184478 120.227222h101.620445l48.89664 74.347288 61.702294-105.70139c15.296381 5.703909 32.670074 7.093559 47.369867 2.989077l18.977213-5.300726c9.612938-2.685155 28.019147-2.689249 37.649482 0l18.97619 5.300726c13.980409 3.904936 30.399357 2.839675 45.147246-2.196015l61.240783 104.908328 48.89664-74.347288h101.620446l-68.827575-117.906364c2.349511-3.927449 4.284583-8.010441 5.716188-12.17018l6.4192-18.62622c3.251044-9.43693 13.704117-24.586978 21.387099-30.984688l15.141862-12.607133c18.74083-15.603373 29.845749-44.840254 26.161847-68.980047l-2.973728-19.475564c-1.506307-9.866718 0.707105-28.139897 4.538363-37.375235l7.54893-18.199501c9.341762-22.522969 5.586229-53.572126-8.893555-73.232908l-0.007163 0.002047zM511.99693 722.03769c-141.846612 0-256.837576-114.988918-256.837576-256.837576s114.988918-256.837576 256.837576-256.837576 256.836553 114.988918 256.836553 256.837576S653.845589 722.03769 511.99693 722.03769z m-0.01535-469.356784c-118.982882 0-215.438701 96.455819-215.4387 215.438701 0 118.982882 96.455819 215.439724 215.4387 215.439724C630.964462 683.559331 727.421304 587.103512 727.421304 468.119607c-0.001023-118.982882-96.456842-215.438701-215.439724-215.438701z m77.356833 321.184094l-74.086346-39.36045-74.885548 37.821397 14.539135-82.622766-59.108213-59.531861 83.070974-11.704576 38.352493-74.613349 36.803208 75.389015 82.8131 13.418614-60.327993 58.297754 12.82919 82.906222z" fill="#ED1F27" p-id="58558"></path></svg>